<svg width="25" height="25" viewBox="0 0 25 25" fill="none" xmlns="http://www.w3.org/2000/svg">
<path fill-rule="evenodd" clip-rule="evenodd" d="M11.5 4.5C7.63401 4.5 4.5 7.63401 4.5 11.5C4.5 15.366 7.63401 18.5 11.5 18.5C15.366 18.5 18.5 15.366 18.5 11.5C18.5 7.63401 15.366 4.5 11.5 4.5ZM2.5 11.5C2.5 6.52944 6.52944 2.5 11.5 2.5C16.4706 2.5 20.5 6.52944 20.5 11.5C20.5 16.4706 16.4706 20.5 11.5 20.5C6.52944 20.5 2.5 16.4706 2.5 11.5Z" fill="white"/>
<path fill-rule="evenodd" clip-rule="evenodd" d="M16.4428 16.4428C16.8333 16.0523 17.4665 16.0523 17.857 16.4428L22.207 20.7928C22.5975 21.1833 22.5975 21.8165 22.207 22.207C21.8165 22.5975 21.1833 22.5975 20.7928 22.207L16.4428 17.857C16.0523 17.4665 16.0523 16.8333 16.4428 16.4428Z" fill="white"/>
</svg>
