<svg width="24" height="25" viewBox="0 0 24 25" fill="none" xmlns="http://www.w3.org/2000/svg">
<g id="vuesax/outline/search-normal">
<g id="search-normal">
<path id="Vector" d="M11.5 22.25C5.85 22.25 1.25 17.65 1.25 12C1.25 6.35 5.85 1.75 11.5 1.75C17.15 1.75 21.75 6.35 21.75 12C21.75 17.65 17.15 22.25 11.5 22.25ZM11.5 3.25C6.67 3.25 2.75 7.18 2.75 12C2.75 16.82 6.67 20.75 11.5 20.75C16.33 20.75 20.25 16.82 20.25 12C20.25 7.18 16.33 3.25 11.5 3.25Z" fill="#BDBDBD"/>
<path id="Vector_2" d="M22 23.2499C21.81 23.2499 21.62 23.1799 21.47 23.0299L19.47 21.0299C19.18 20.7399 19.18 20.2599 19.47 19.9699C19.76 19.6799 20.24 19.6799 20.53 19.9699L22.53 21.9699C22.82 22.2599 22.82 22.7399 22.53 23.0299C22.38 23.1799 22.19 23.2499 22 23.2499Z" fill="#BDBDBD"/>
</g>
</g>
</svg>
